<svg width="20" height="20" viewBox="0 0 20 20" fill="none" xmlns="http://www.w3.org/2000/svg">
<g clip-path="url(#clip0_138_280)">
<path d="M15.0001 6.66699C15.0001 3.90866 12.7584 1.66699 10.0001 1.66699C7.24175 1.66699 5.00008 3.90866 5.00008 6.66699C5.00008 10.417 10.0001 15.8337 10.0001 15.8337C10.0001 15.8337 15.0001 10.417 15.0001 6.66699ZM8.33342 6.66699C8.33342 5.75033 9.08342 5.00033 10.0001 5.00033C10.9167 5.00033 11.6667 5.75033 11.6667 6.66699C11.6667 7.58366 10.9251 8.33366 10.0001 8.33366C9.08342 8.33366 8.33342 7.58366 8.33342 6.66699ZM4.16675 16.667V18.3337H15.8334V16.667H4.16675Z" fill="white"/>
</g>
<defs>
<clipPath id="clip0_138_280">
<rect width="20" height="20" fill="white"/>
</clipPath>
</defs>
</svg>
